<svg xmlns="http://www.w3.org/2000/svg" viewBox="0 0 64 64">
  <defs>
    <linearGradient id="g" x1="0%" y1="0%" x2="100%" y2="100%">
      <stop offset="0%" stop-color="#06b6d4" />
      <stop offset="100%" stop-color="#3b82f6" />
    </linearGradient>
  </defs>
  <rect width="64" height="64" rx="16" fill="#020617" />
  <path d="M16 44V20h10c6 0 10 3 10 8s-4 8-10 8h-4v8H16Zm6-14h4c3 0 5-1 5-4s-2-4-5-4h-4v8Z" fill="url(#g)" />
  <path d="M42 44c3 0 6-1 8-3l-3-4c-1 1-3 2-5 2-4 0-6-2-6-5s2-5 6-5c2 0 4 1 5 2l3-4c-2-2-5-3-8-3-7 0-12 4-12 10s5 10 12 10Z" fill="#f8fafc" />
</svg>
